<?xml version="1.0" encoding="UTF-8" standalone="no"?>
<svg
   xmlns:dc="http://purl.org/dc/elements/1.1/"
   xmlns:cc="http://creativecommons.org/ns#"
   xmlns:rdf="http://www.w3.org/1999/02/22-rdf-syntax-ns#"
   xmlns:svg="http://www.w3.org/2000/svg"
   xmlns="http://www.w3.org/2000/svg"
   xmlns:sodipodi="http://sodipodi.sourceforge.net/DTD/sodipodi-0.dtd"
   xmlns:inkscape="http://www.inkscape.org/namespaces/inkscape"
   version="1.1"
   x="0px"
   y="0px"
   viewBox="0 0 86.000008 68"
   id="svg10"
   sodipodi:docname="scroll_icon.svg"
   width="86.000008"
   height="68"
   inkscape:version="0.92.4 (5da689c313, 2019-01-14)">
  <metadata
     id="metadata16">
    <rdf:RDF>
      <cc:Work
         rdf:about="">
        <dc:format>image/svg+xml</dc:format>
        <dc:type
           rdf:resource="http://purl.org/dc/dcmitype/StillImage" />
      </cc:Work>
    </rdf:RDF>
  </metadata>
  <defs
     id="defs14" />
  <sodipodi:namedview
     pagecolor="#ffffff"
     bordercolor="#666666"
     borderopacity="1"
     objecttolerance="10"
     gridtolerance="10"
     guidetolerance="10"
     inkscape:pageopacity="0"
     inkscape:pageshadow="2"
     inkscape:window-width="1920"
     inkscape:window-height="1001"
     id="namedview12"
     showgrid="false"
     inkscape:zoom="1.888"
     inkscape:cx="116.3174"
     inkscape:cy="21.500014"
     inkscape:window-x="-9"
     inkscape:window-y="-9"
     inkscape:window-maximized="1"
     inkscape:current-layer="svg10" />
  <g
     transform="rotate(90,530.69146,514.67074)"
     id="g4">
    <path
       style="color:#000000;text-indent:0;text-transform:none;direction:ltr;baseline-shift:baseline;display:inline;overflow:visible;visibility:visible;fill:#000000;fill-opacity:1;fill-rule:nonzero;stroke:none;enable-background:accumulate"
       d="m 44.830058,959.3622 c -0.458682,0.0875 -0.821224,0.5334 -0.812995,1 v 83.9999 c 2.6e-5,0.5237 0.476689,1 1.000609,1.0001 H 55.02377 c 0.52392,-10e-5 1.000583,-0.4764 1.000609,-1.0001 v -83.9999 c -5.2e-5,-0.52359 -0.476706,-0.99995 -1.000609,-1 -3.390398,-10e-6 -6.818316,0 -10.193712,0 z m 1.188224,2 h 8.004878 v 82 h -8.004878 z m -13.22681,22.99999 c -0.19295,0.0512 -0.369733,0.1616 -0.500304,0.31251 l -16.009757,17 c -0.347587,0.367 -0.347587,1.0079 0,1.3749 l 16.009757,17.0001 c 0.548525,0.5664 1.713529,0.1007 1.719797,-0.6875 v -34.00001 c 0.01464,-0.6051 -0.628533,-1.1325 -1.219493,-1 z m 34.052001,0 c -0.458683,0.0875 -0.821225,0.5334 -0.812996,1 v 34.00001 c 0.0063,0.7882 1.171272,1.2539 1.719797,0.6875 l 16.009757,-17.0001 c 0.347587,-0.367 0.347587,-1.0079 0,-1.3749 l -16.009757,-17 c -0.224571,-0.24633 -0.578038,-0.36815 -0.906801,-0.31251 z m -34.833727,3.5 v 28.99991 l -13.633308,-14.4999 z m 36.02195,0 13.633308,14.50001 -13.633308,14.4999 z"
       marker="none"
       visibility="visible"
       display="inline"
       overflow="visible"
       id="path2"
       inkscape:connector-curvature="0" />
  </g>
</svg>
