<?xml version="1.0" encoding="UTF-8" standalone="no"?>
<svg
   xmlns:dc="http://purl.org/dc/elements/1.1/"
   xmlns:cc="http://creativecommons.org/ns#"
   xmlns:rdf="http://www.w3.org/1999/02/22-rdf-syntax-ns#"
   xmlns:svg="http://www.w3.org/2000/svg"
   xmlns="http://www.w3.org/2000/svg"
   xmlns:sodipodi="http://sodipodi.sourceforge.net/DTD/sodipodi-0.dtd"
   xmlns:inkscape="http://www.inkscape.org/namespaces/inkscape"
   version="1.1"
   x="0px"
   y="0px"
   viewBox="0 0 511.974 511.98099"
   enable-background="new 0 0 512 512"
   xml:space="preserve"
   id="svg8"
   sodipodi:docname="noun_Search_1969783.svg"
   width="511.974"
   height="511.98099"
   inkscape:version="0.92.4 (5da689c313, 2019-01-14)"><metadata
     id="metadata14"><rdf:RDF><cc:Work
         rdf:about=""><dc:format>image/svg+xml</dc:format><dc:type
           rdf:resource="http://purl.org/dc/dcmitype/StillImage" /></cc:Work></rdf:RDF></metadata><defs
     id="defs12" /><sodipodi:namedview
     pagecolor="#ffffff"
     bordercolor="#666666"
     borderopacity="1"
     objecttolerance="10"
     gridtolerance="10"
     guidetolerance="10"
     inkscape:pageopacity="0"
     inkscape:pageshadow="2"
     inkscape:window-width="1920"
     inkscape:window-height="1001"
     id="namedview10"
     showgrid="false"
     inkscape:zoom="0.36875"
     inkscape:cx="-259.26724"
     inkscape:cy="191.99"
     inkscape:window-x="-9"
     inkscape:window-y="-9"
     inkscape:window-maximized="1"
     inkscape:current-layer="svg8" /><path
     d="M 511.974,454.077 375.637,317.739 C 397.089,285.335 409.573,246.553 409.573,204.805 409.573,91.684 317.89,0 204.787,0 91.682,0 0,91.684 0,204.805 0,317.895 91.683,409.61 204.787,409.61 c 41.731,0 80.559,-12.529 112.932,-33.967 L 454.055,511.981 Z M 58.029,204.836 c 0,-81.06 65.715,-146.745 146.758,-146.745 81.059,0 146.773,65.685 146.773,146.745 0,81.061 -65.715,146.776 -146.773,146.776 -81.043,0 -146.758,-65.715 -146.758,-146.776 z"
     id="path2"
     inkscape:connector-curvature="0" /></svg>