<?xml version="1.0" encoding="UTF-8" standalone="no"?>
<svg
   xmlns:dc="http://purl.org/dc/elements/1.1/"
   xmlns:cc="http://creativecommons.org/ns#"
   xmlns:rdf="http://www.w3.org/1999/02/22-rdf-syntax-ns#"
   xmlns:svg="http://www.w3.org/2000/svg"
   xmlns="http://www.w3.org/2000/svg"
   xmlns:sodipodi="http://sodipodi.sourceforge.net/DTD/sodipodi-0.dtd"
   xmlns:inkscape="http://www.inkscape.org/namespaces/inkscape"
   version="1.1"
   x="0px"
   y="0px"
   viewBox="0 0 27.989922 28"
   enable-background="new 0 0 32 32"
   xml:space="preserve"
   id="svg8"
   sodipodi:docname="eraser.svg"
   width="27.989922"
   height="28"
   inkscape:version="0.92.4 (5da689c313, 2019-01-14)"><metadata
     id="metadata14"><rdf:RDF><cc:Work
         rdf:about=""><dc:format>image/svg+xml</dc:format><dc:type
           rdf:resource="http://purl.org/dc/dcmitype/StillImage" /></cc:Work></rdf:RDF></metadata><defs
     id="defs12" /><sodipodi:namedview
     pagecolor="#ffffff"
     bordercolor="#666666"
     borderopacity="1"
     objecttolerance="10"
     gridtolerance="10"
     guidetolerance="10"
     inkscape:pageopacity="0"
     inkscape:pageshadow="2"
     inkscape:window-width="776"
     inkscape:window-height="480"
     id="namedview10"
     showgrid="false"
     inkscape:zoom="5.9"
     inkscape:cx="13.994802"
     inkscape:cy="27.925205"
     inkscape:window-x="496"
     inkscape:window-y="62"
     inkscape:window-maximized="0"
     inkscape:current-layer="svg8" /><path
     d="m 26.848802,7.539 -6.394,-6.394 c -0.748,-0.749 -1.632,-1.145 -2.553,-1.145 -1.508,0 -2.579,1.028 -2.696,1.146 L 1.1408021,15.211 c -1.92599999,1.926 -1.05499999,4.195 0,5.25 l 6.394,6.394 c 0.748,0.749 1.631,1.145 2.5529999,1.145 1.507,0 2.579,-1.028 2.696,-1.146 l 14.065,-14.065 c 1.926,-1.926 1.056,-4.195 0,-5.25 z m -15.473,17.896 c -0.006,0.005 -0.594,0.565 -1.288,0.565 -0.3909999,0 -0.7639999,-0.184 -1.1399999,-0.56 l -6.393,-6.393 c -0.202,-0.202 -1.152,-1.27 0,-2.422 l 9.3259999,-9.326 8.815,8.815 z m 14.059,-14.06 -3.326,3.326 -8.815,-8.815 3.32,-3.32 c 0.006,-0.006 0.594,-0.566 1.288,-0.566 0.391,0 0.763,0.183 1.14,0.56 l 6.394,6.394 c 0.202,0.201 1.152,1.269 -10e-4,2.421 z"
     id="path2"
     inkscape:connector-curvature="0" /></svg>