<?xml version="1.0" encoding="UTF-8" standalone="no"?>
<svg
   xmlns:dc="http://purl.org/dc/elements/1.1/"
   xmlns:cc="http://creativecommons.org/ns#"
   xmlns:rdf="http://www.w3.org/1999/02/22-rdf-syntax-ns#"
   xmlns:svg="http://www.w3.org/2000/svg"
   xmlns="http://www.w3.org/2000/svg"
   xmlns:sodipodi="http://sodipodi.sourceforge.net/DTD/sodipodi-0.dtd"
   xmlns:inkscape="http://www.inkscape.org/namespaces/inkscape"
   version="1.1"
   x="0px"
   y="0px"
   viewBox="0 0 7.9980001 7.9980001"
   enable-background="new 0 0 8 8"
   xml:space="preserve"
   id="svg8"
   sodipodi:docname="font_A.svg"
   width="7.9980001"
   height="7.9980001"
   inkscape:version="0.92.4 (5da689c313, 2019-01-14)"><metadata
     id="metadata14"><rdf:RDF><cc:Work
         rdf:about=""><dc:format>image/svg+xml</dc:format><dc:type
           rdf:resource="http://purl.org/dc/dcmitype/StillImage" /></cc:Work></rdf:RDF></metadata><defs
     id="defs12" /><sodipodi:namedview
     pagecolor="#ffffff"
     bordercolor="#666666"
     borderopacity="1"
     objecttolerance="10"
     gridtolerance="10"
     guidetolerance="10"
     inkscape:pageopacity="0"
     inkscape:pageshadow="2"
     inkscape:window-width="776"
     inkscape:window-height="480"
     id="namedview10"
     showgrid="false"
     inkscape:zoom="23.6"
     inkscape:cx="3.999"
     inkscape:cy="4.6357415"
     inkscape:window-x="0"
     inkscape:window-y="0"
     inkscape:window-maximized="0"
     inkscape:current-layer="svg8" /><path
     d="M 7.498,6.998 H 7.374 C 7.164,6.998 6.986,6.867 6.911,6.686 L 4.465,0.318 C 4.463,0.314 4.46,0.311 4.458,0.307 4.444,0.272 4.42,0.244 4.398,0.213 4.382,0.19 4.37,0.164 4.35,0.144 4.333,0.127 4.31,0.117 4.291,0.102 4.257,0.078 4.225,0.052 4.187,0.037 4.183,0.035 4.181,0.032 4.178,0.031 4.157,0.023 4.136,0.025 4.115,0.02 4.076,0.011 4.039,0 3.999,0 3.958,0 3.92,0.011 3.881,0.021 3.861,0.026 3.84,0.023 3.82,0.031 3.819,0.031 3.817,0.035 3.816,0.035 3.69,0.085 3.584,0.182 3.532,0.318 L 1.086,6.686 C 1.012,6.867 0.834,6.998 0.624,6.998 H 0.5 c -0.277,0 -0.5,0.224 -0.5,0.5 0,0.274 0.223,0.5 0.5,0.5 h 0.82 c 0.003,0 0.007,0 0.011,0 h 1.168 c 0.276,0 0.5,-0.226 0.5,-0.5 0,-0.276 -0.224,-0.5 -0.5,-0.5 H 2.405 C 2.266,6.998 2.155,6.885 2.155,6.748 2.155,6.716 2.16,6.686 2.171,6.657 2.172,6.655 2.167,6.66 2.167,6.658 L 2.421,5.996 H 5.09 l 0.284,0.759 c 0.001,0.001 0,0.001 0,0.002 0.041,0.115 -0.007,0.241 -0.107,0.3 0,0 0.004,0.003 0.004,0.004 -0.161,0.083 -0.272,0.245 -0.272,0.437 0,0.274 0.223,0.5 0.5,0.5 h 1.08 c 0.014,0 0.026,0 0.039,0 h 0.88 c 0.276,0 0.5,-0.226 0.5,-0.5 0,-0.276 -0.224,-0.5 -0.5,-0.5 z M 2.806,4.996 3.501,3.185 c 10e-4,-0.002 0.002,0.006 0.004,0 0.052,-0.146 0.213,-0.224 0.36,-0.172 0.079,0.028 0.14,0.091 0.168,0.165 0,0 0,-10e-4 0,-10e-4 l 0.682,1.82 H 2.806 Z"
     id="path2"
     inkscape:connector-curvature="0" /></svg>