<?xml version="1.0" encoding="UTF-8" standalone="no"?>
<svg
   xmlns:dc="http://purl.org/dc/elements/1.1/"
   xmlns:cc="http://creativecommons.org/ns#"
   xmlns:rdf="http://www.w3.org/1999/02/22-rdf-syntax-ns#"
   xmlns:svg="http://www.w3.org/2000/svg"
   xmlns="http://www.w3.org/2000/svg"
   xmlns:sodipodi="http://sodipodi.sourceforge.net/DTD/sodipodi-0.dtd"
   xmlns:inkscape="http://www.inkscape.org/namespaces/inkscape"
   version="1.1"
   x="0px"
   y="0px"
   viewBox="0 0 7 7"
   enable-background="new 0 0 8 8"
   xml:space="preserve"
   id="svg8"
   sodipodi:docname="font_S.svg"
   width="7"
   height="7"
   inkscape:version="0.92.4 (5da689c313, 2019-01-14)"><metadata
     id="metadata14"><rdf:RDF><cc:Work
         rdf:about=""><dc:format>image/svg+xml</dc:format><dc:type
           rdf:resource="http://purl.org/dc/dcmitype/StillImage" /></cc:Work></rdf:RDF></metadata><defs
     id="defs12" /><sodipodi:namedview
     pagecolor="#ffffff"
     bordercolor="#666666"
     borderopacity="1"
     objecttolerance="10"
     gridtolerance="10"
     guidetolerance="10"
     inkscape:pageopacity="0"
     inkscape:pageshadow="2"
     inkscape:window-width="1920"
     inkscape:window-height="1001"
     id="namedview10"
     showgrid="false"
     inkscape:zoom="4.17193"
     inkscape:cx="49.13249"
     inkscape:cy="-5.61928"
     inkscape:window-x="-9"
     inkscape:window-y="-9"
     inkscape:window-maximized="1"
     inkscape:current-layer="svg8" /><path
     d="M 6.5,4 H 5.722 C 5.894,4.294 6,4.633 6,4.999 6,6.104 5.104,7 4,7 H 2.915 C 2.556,7 2.225,6.896 1.934,6.732 1.851,6.889 1.689,7 1.5,7 H 1.25 C 1.112,7 1,6.887 1,6.75 v -0.252 -1 -0.25 C 1,5.111 1.112,4.998 1.25,4.998 H 1.5 c 0.219,0 0.399,0.142 0.468,0.339 L 1.98,5.334 c 0.139,0.387 0.5,0.664 0.935,0.664 H 4 c 0.553,0 1,-0.445 1,-1 C 5,4.448 4.553,4 4,4 H 3.5 3 2.915 0.499 C 0.223,4 0,3.776 0,3.5 0,3.223 0.223,3 0.499,3 H 1.278 C 1.106,2.705 1,2.365 1,2 1,0.896 1.896,0 3,0 H 4.087 C 4.444,0 4.775,0.104 5.066,0.267 5.15,0.11 5.311,0 5.5,0 H 5.75 C 5.889,0 6,0.112 6,0.25 v 0.25 1 0.25 C 6,1.889 5.889,2 5.75,2 H 5.5 C 5.282,2 5.101,1.858 5.031,1.661 L 5.02,1.665 C 4.881,1.278 4.52,1 4.087,1 H 3 C 2.447,1 2,1.447 2,2 2,2.553 2.447,3 3,3 H 3.5 4 6.5 C 6.776,3 7,3.223 7,3.5 7,3.776 6.776,4 6.5,4 Z"
     id="path2"
     inkscape:connector-curvature="0"
     style="clip-rule:evenodd;fill-rule:evenodd" /></svg>