<?xml version="1.0" encoding="UTF-8" standalone="no"?>
<svg
   xmlns:dc="http://purl.org/dc/elements/1.1/"
   xmlns:cc="http://creativecommons.org/ns#"
   xmlns:rdf="http://www.w3.org/1999/02/22-rdf-syntax-ns#"
   xmlns:svg="http://www.w3.org/2000/svg"
   xmlns="http://www.w3.org/2000/svg"
   xmlns:sodipodi="http://sodipodi.sourceforge.net/DTD/sodipodi-0.dtd"
   xmlns:inkscape="http://www.inkscape.org/namespaces/inkscape"
   version="1.1"
   x="0px"
   y="0px"
   viewBox="0 0 7.9990001 8"
   enable-background="new 0 0 8 8"
   xml:space="preserve"
   id="svg8"
   sodipodi:docname="font_B.svg"
   width="7.9990001"
   height="8"
   inkscape:version="0.92.4 (5da689c313, 2019-01-14)"><metadata
     id="metadata14"><rdf:RDF><cc:Work
         rdf:about=""><dc:format>image/svg+xml</dc:format><dc:type
           rdf:resource="http://purl.org/dc/dcmitype/StillImage" /></cc:Work></rdf:RDF></metadata><defs
     id="defs12" /><sodipodi:namedview
     pagecolor="#ffffff"
     bordercolor="#666666"
     borderopacity="1"
     objecttolerance="10"
     gridtolerance="10"
     guidetolerance="10"
     inkscape:pageopacity="0"
     inkscape:pageshadow="2"
     inkscape:window-width="1920"
     inkscape:window-height="1001"
     id="namedview10"
     showgrid="false"
     inkscape:zoom="23.6"
     inkscape:cx="18.948153"
     inkscape:cy="-2.1529661"
     inkscape:window-x="-9"
     inkscape:window-y="-9"
     inkscape:window-maximized="1"
     inkscape:current-layer="svg8" /><path
     d="M 7.999,5.498 C 7.999,6.879 6.88,8 5.499,8 h -3.5 -1.5 C 0.223,8 0,7.775 0,7.5 0,7.225 0.223,7 0.499,7 0.774,7 0.999,6.775 0.999,6.498 V 1.5 C 0.999,1.223 0.774,1 0.499,1 0.223,1 0,0.776 0,0.5 0,0.224 0.223,0 0.499,0 h 1.5 3 c 1.104,0 2,0.896 2,2 0,0.472 -0.171,0.9 -0.443,1.242 0.85,0.401 1.443,1.257 1.443,2.256 z M 3.999,1 H 3.249 C 3.11,1 2.999,1.111 2.999,1.25 v 1.5 C 2.999,2.887 3.11,3 3.249,3 h 0.75 c 0.553,0 1,-0.447 1,-1 0,-0.553 -0.447,-1 -1,-1 z m 0.5,3 H 3.249 C 3.11,4 2.999,4.111 2.999,4.25 v 2.5 C 2.999,6.887 3.11,7 3.249,7 h 1.25 C 5.327,7 5.999,6.328 5.999,5.498 5.999,4.671 5.327,4 4.499,4 Z"
     id="path2"
     inkscape:connector-curvature="0"
     style="clip-rule:evenodd;fill-rule:evenodd" /></svg>