<?xml version="1.0" encoding="UTF-8" standalone="no"?>
<svg
   xmlns:dc="http://purl.org/dc/elements/1.1/"
   xmlns:cc="http://creativecommons.org/ns#"
   xmlns:rdf="http://www.w3.org/1999/02/22-rdf-syntax-ns#"
   xmlns:svg="http://www.w3.org/2000/svg"
   xmlns="http://www.w3.org/2000/svg"
   xmlns:sodipodi="http://sodipodi.sourceforge.net/DTD/sodipodi-0.dtd"
   xmlns:inkscape="http://www.inkscape.org/namespaces/inkscape"
   version="1.0"
   x="0px"
   y="0px"
   viewBox="0 0 24 32"
   enable-background="new 0 0 32 32"
   xml:space="preserve"
   id="svg8"
   sodipodi:docname="font_U.svg"
   width="24"
   height="32"
   inkscape:version="0.92.4 (5da689c313, 2019-01-14)"><metadata
     id="metadata14"><rdf:RDF><cc:Work
         rdf:about=""><dc:format>image/svg+xml</dc:format><dc:type
           rdf:resource="http://purl.org/dc/dcmitype/StillImage" /></cc:Work></rdf:RDF></metadata><defs
     id="defs12" /><sodipodi:namedview
     pagecolor="#ffffff"
     bordercolor="#666666"
     borderopacity="1"
     objecttolerance="10"
     gridtolerance="10"
     guidetolerance="10"
     inkscape:pageopacity="0"
     inkscape:pageshadow="2"
     inkscape:window-width="776"
     inkscape:window-height="480"
     id="namedview10"
     showgrid="false"
     inkscape:zoom="5.9"
     inkscape:cx="12"
     inkscape:cy="16.486885"
     inkscape:window-x="0"
     inkscape:window-y="0"
     inkscape:window-maximized="0"
     inkscape:current-layer="svg8" /><path
     d="m 0,28 h 24 v 4 H 0 Z M 16,0 v 2.001 c 1.105,0 2,0.895 2,2 v 12 c 0,3.313 -2.688,6 -6,6 -3.316,0 -6,-2.687 -6,-6 v -12 c 0,-1.104 0.895,-2 2,-2 V 0 H 0 v 2.001 c 1.105,0 2,0.895 2,2 v 12 C 2,21.523 6.477,26 12,26 c 5.523,0 10,-4.477 10,-9.999 v -12 c 0,-1.104 0.895,-2 2,-2 V 0 Z"
     id="path2"
     inkscape:connector-curvature="0" /></svg>