<?xml version="1.0" encoding="UTF-8" standalone="no"?>
<svg
   xmlns:dc="http://purl.org/dc/elements/1.1/"
   xmlns:cc="http://creativecommons.org/ns#"
   xmlns:rdf="http://www.w3.org/1999/02/22-rdf-syntax-ns#"
   xmlns:svg="http://www.w3.org/2000/svg"
   xmlns="http://www.w3.org/2000/svg"
   xmlns:sodipodi="http://sodipodi.sourceforge.net/DTD/sodipodi-0.dtd"
   xmlns:inkscape="http://www.inkscape.org/namespaces/inkscape"
   version="1.1"
   x="0px"
   y="0px"
   viewBox="0 0 912 912"
   xml:space="preserve"
   id="svg10"
   sodipodi:docname="noun_profile_2221974.svg"
   width="912"
   height="912"
   inkscape:version="0.92.4 (5da689c313, 2019-01-14)"><metadata
     id="metadata16"><rdf:RDF><cc:Work
         rdf:about=""><dc:format>image/svg+xml</dc:format><dc:type
           rdf:resource="http://purl.org/dc/dcmitype/StillImage" /></cc:Work></rdf:RDF></metadata><defs
     id="defs14" /><sodipodi:namedview
     pagecolor="#ffffff"
     bordercolor="#666666"
     borderopacity="1"
     objecttolerance="10"
     gridtolerance="10"
     guidetolerance="10"
     inkscape:pageopacity="0"
     inkscape:pageshadow="2"
     inkscape:window-width="1920"
     inkscape:window-height="1001"
     id="namedview12"
     showgrid="false"
     inkscape:zoom="0.184375"
     inkscape:cx="456"
     inkscape:cy="328"
     inkscape:window-x="-9"
     inkscape:window-y="-9"
     inkscape:window-maximized="1"
     inkscape:current-layer="svg10" /><g
     id="g4"
     transform="translate(-56,-56)"
     style="fill:#808080;fill-opacity:1"><path
       d="M 834.4,189.6 C 751.9,107 637.9,56 512,56 260.2,56 56,260.2 56,512 56,637.9 107,751.9 189.6,834.4 272.2,916.9 386.1,968 512,968 637.9,968 751.9,917 834.4,834.4 916.9,751.8 968,637.9 968,512 968,386.1 917,272.1 834.4,189.6 Z m -322.5,6.8 c 87.2,-0.1 157.8,70.6 157.8,157.8 -0.1,85.7 -71.8,157.5 -157.5,157.5 -87.2,0.1 -157.8,-70.6 -157.8,-157.8 0,-85.6 71.8,-157.4 157.5,-157.5 z M 774,774 c -31.6,31.6 -68.8,57.5 -110,76 -46.4,20.9 -97.8,32.5 -152,32.5 -54.2,0 -105.6,-11.6 -152,-32.5 -41.2,-18.6 -78.5,-44.5 -110,-76 -15.9,-15.9 -30.4,-33.3 -43.3,-51.9 23,-76.7 94.4,-133 178.4,-133 h 253.8 c 84,0 155.4,56.3 178.4,133 C 804.4,740.7 789.9,758 774,774 Z"
       id="path2"
       inkscape:connector-curvature="0"
       style="fill:#808080;fill-opacity:1" /></g></svg>