<?xml version="1.0" encoding="UTF-8" standalone="no"?>
<svg
   xmlns:dc="http://purl.org/dc/elements/1.1/"
   xmlns:cc="http://creativecommons.org/ns#"
   xmlns:rdf="http://www.w3.org/1999/02/22-rdf-syntax-ns#"
   xmlns:svg="http://www.w3.org/2000/svg"
   xmlns="http://www.w3.org/2000/svg"
   xmlns:sodipodi="http://sodipodi.sourceforge.net/DTD/sodipodi-0.dtd"
   xmlns:inkscape="http://www.inkscape.org/namespaces/inkscape"
   version="1.1"
   x="0px"
   y="0px"
   viewBox="0 0 47.799999 77.423698"
   xml:space="preserve"
   id="svg16"
   sodipodi:docname="noun_Medal_1210071.svg"
   width="47.799999"
   height="77.423698"
   inkscape:version="0.92.4 (5da689c313, 2019-01-14)"><metadata
     id="metadata22"><rdf:RDF><cc:Work
         rdf:about=""><dc:format>image/svg+xml</dc:format><dc:type
           rdf:resource="http://purl.org/dc/dcmitype/StillImage" /></cc:Work></rdf:RDF></metadata><defs
     id="defs20" /><sodipodi:namedview
     pagecolor="#ffffff"
     bordercolor="#666666"
     borderopacity="1"
     objecttolerance="10"
     gridtolerance="10"
     guidetolerance="10"
     inkscape:pageopacity="0"
     inkscape:pageshadow="2"
     inkscape:window-width="1920"
     inkscape:window-height="1001"
     id="namedview18"
     showgrid="false"
     inkscape:zoom="2.0977778"
     inkscape:cx="23.9"
     inkscape:cy="27.473696"
     inkscape:window-x="-9"
     inkscape:window-y="-9"
     inkscape:window-maximized="1"
     inkscape:current-layer="svg16" /><path
     d="M 10.4,49.6 C 9.1,48.9 7.8,48.1 6.6,47.2 l -3.2,29 c -0.1,0.9 0.9,1.6 1.7,1 l 2.4,-1.7 z"
     id="path2"
     inkscape:connector-curvature="0"
     style="fill:#f2858f;fill-opacity:0.94117647" /><path
     d="m 37.4,49.6 2.9,25.9 2.4,1.7 c 0.8,0.5 1.8,-0.1 1.7,-1 l -3.2,-29 C 40,48 38.7,48.9 37.4,49.6 Z"
     id="path4"
     inkscape:connector-curvature="0"
     style="fill:#f2858f;fill-opacity:0.94117647" /><path
     d="m 36.1,50.2 c -3.7,1.7 -7.8,2.7 -12.2,2.7 -4.4,0 -8.5,-1 -12.2,-2.7 L 9,74.4 23.2,64.6 c 0.4,-0.3 0.9,-0.3 1.3,0 l 14.2,9.8 z"
     id="path6"
     inkscape:connector-curvature="0"
     style="fill:#f2858f;fill-opacity:0.94117647" /><path
     d="M 23.9,0 C 10.7,0 0,10.7 0,23.9 0,37.1 10.7,47.8 23.9,47.8 37.1,47.8 47.8,37.1 47.8,23.9 47.8,10.7 37.1,0 23.9,0 Z m 0,40.5 C 14.7,40.5 7.3,33.1 7.3,23.9 7.3,14.7 14.7,7.3 23.9,7.3 c 9.2,0 16.6,7.4 16.6,16.6 0,9.2 -7.4,16.6 -16.6,16.6 z"
     id="path8"
     inkscape:connector-curvature="0"
     style="fill:#f2858f;fill-opacity:0.94117647" /><polygon
     points="55.7,27.8 50.4,33 51.6,40.4 45,36.9 38.4,40.4 39.6,33 34.3,27.8 41.7,26.7 45,20 48.3,26.7 "
     id="polygon10"
     transform="translate(-21.1,-6.3)"
     style="fill:#f2858f;fill-opacity:0.94117647" /></svg>